# xmcd
#
# Track frame offsets: 
#        150
#        12275
#        25975
#        37837
#        48650
#        61575
#        74437
#        85687
#        98050
#        111012
#
# Disc length: 1658 seconds
#
# Revision: 2
# Processed by: cddbd v1.5.2PL0 Copyright (c) Steve Scherf et al.
# Submitted via: ExactAudioCopyFreeDBPlugin 1.0
#
DISCID=7306780a
DTITLE=Various Artist - All-Star Polka Party
DYEAR=1900
DGENRE=Country
TTITLE0=Swing and Sway With Sammy Kaye, vocal by The Glee Club - When Th
TTITLE0=ey Played The Polka
TTITLE1=Mary Martin with Horace Heidt and His Musical Knights - Pound Yo
TTITLE1=ur Table Polka
TTITLE2=Lawrence Welk - Beer Barrel Polka
TTITLE3=Chick Bullock and His Orchestra, vocal by Chick Bullock - When Y
TTITLE3=ou Wore A Tulip
TTITLE4=Horace Heidt and His Musical Knights, vocal by Charlie Goodman &
TTITLE4=The Glee Club - Pennsylvania Polka
TTITLE5=Kay Kyser and His Orchestra, vocal by Jack Martin and The Glee Clu
TTITLE5=b - Strip Polka
TTITLE6=Doris Day with orchestra under Lou Bring - Papa, Won't You Dan
TTITLE6=ce With Me ?
TTITLE7=Al Dexter and His Troopers - Guitar Polka
TTITLE8=Frankie Yankovic and His Yanks with The Martin Sisters - Blue Sk
TTITLE8=irt Waltz
TTITLE9=Arthur Godfrey with orchestra under Archie Bleyer - Too Fat Po
TTITLE9=lka
EXTD=
EXTT0=
EXTT1=
EXTT2=
EXTT3=
EXTT4=
EXTT5=
EXTT6=
EXTT7=
EXTT8=
EXTT9=
PLAYORDER=
